<svg width="1440" height="337" viewBox="0 0 1440 337" fill="none" xmlns="http://www.w3.org/2000/svg">
<rect y="0.434143" width="1440" height="335.689" fill="url(#paint0_linear_48_75)"/>
<path d="M525.182 239H497.909L528.636 145.909H563.182L593.909 239H566.636L546.273 171.545H545.545L525.182 239ZM520.091 202.273H571.364V221.182H520.091V202.273ZM602.875 239V145.909H627.966V181.364H628.33C629.239 179 630.572 176.833 632.33 174.864C634.087 172.864 636.269 171.273 638.875 170.091C641.481 168.879 644.511 168.273 647.966 168.273C652.572 168.273 656.951 169.5 661.102 171.955C665.284 174.409 668.678 178.273 671.284 183.545C673.92 188.818 675.239 195.667 675.239 204.091C675.239 212.152 673.981 218.833 671.466 224.136C668.981 229.439 665.648 233.394 661.466 236C657.314 238.606 652.754 239.909 647.784 239.909C644.511 239.909 641.587 239.379 639.011 238.318C636.466 237.227 634.284 235.758 632.466 233.909C630.678 232.03 629.299 229.909 628.33 227.545H627.784V239H602.875ZM627.42 204.091C627.42 207.485 627.86 210.424 628.739 212.909C629.648 215.364 630.92 217.273 632.557 218.636C634.223 219.97 636.208 220.636 638.511 220.636C640.814 220.636 642.769 219.985 644.375 218.682C646.011 217.348 647.254 215.455 648.102 213C648.981 210.515 649.42 207.545 649.42 204.091C649.42 200.636 648.981 197.682 648.102 195.227C647.254 192.742 646.011 190.848 644.375 189.545C642.769 188.212 640.814 187.545 638.511 187.545C636.208 187.545 634.223 188.212 632.557 189.545C630.92 190.848 629.648 192.742 628.739 195.227C627.86 197.682 627.42 200.636 627.42 204.091ZM719.375 240.273C711.799 240.273 705.314 238.773 699.92 235.773C694.527 232.742 690.39 228.53 687.511 223.136C684.633 217.712 683.193 211.424 683.193 204.273C683.193 197.121 684.633 190.848 687.511 185.455C690.39 180.03 694.527 175.818 699.92 172.818C705.314 169.788 711.799 168.273 719.375 168.273C726.951 168.273 733.436 169.788 738.83 172.818C744.223 175.818 748.36 180.03 751.239 185.455C754.117 190.848 755.557 197.121 755.557 204.273C755.557 211.424 754.117 217.712 751.239 223.136C748.36 228.53 744.223 232.742 738.83 235.773C733.436 238.773 726.951 240.273 719.375 240.273ZM719.557 221.727C721.678 221.727 723.511 221.015 725.057 219.591C726.602 218.167 727.799 216.136 728.648 213.5C729.496 210.864 729.92 207.727 729.92 204.091C729.92 200.424 729.496 197.288 728.648 194.682C727.799 192.045 726.602 190.015 725.057 188.591C723.511 187.167 721.678 186.455 719.557 186.455C717.314 186.455 715.39 187.167 713.784 188.591C712.178 190.015 710.951 192.045 710.102 194.682C709.254 197.288 708.83 200.424 708.83 204.091C708.83 207.727 709.254 210.864 710.102 213.5C710.951 216.136 712.178 218.167 713.784 219.591C715.39 221.015 717.314 221.727 719.557 221.727ZM811.011 208.455V169.182H836.102V239H812.284V225.727H811.557C810.042 230.182 807.39 233.667 803.602 236.182C799.814 238.667 795.314 239.909 790.102 239.909C785.223 239.909 780.951 238.788 777.284 236.545C773.648 234.303 770.814 231.212 768.784 227.273C766.784 223.333 765.769 218.818 765.739 213.727V169.182H790.83V208.455C790.86 211.909 791.739 214.621 793.466 216.591C795.223 218.561 797.678 219.545 800.83 219.545C802.92 219.545 804.723 219.106 806.239 218.227C807.784 217.318 808.966 216.045 809.784 214.409C810.633 212.742 811.042 210.758 811.011 208.455ZM890.5 169.182V187.364H844.5V169.182H890.5ZM853.409 152.455H878.5V216.545C878.5 217.515 878.667 218.333 879 219C879.333 219.636 879.848 220.121 880.545 220.455C881.242 220.758 882.136 220.909 883.227 220.909C883.985 220.909 884.864 220.818 885.864 220.636C886.894 220.455 887.652 220.303 888.136 220.182L891.773 237.818C890.652 238.152 889.045 238.561 886.955 239.045C884.894 239.53 882.439 239.848 879.591 240C873.833 240.303 869 239.712 865.091 238.227C861.182 236.712 858.242 234.333 856.273 231.091C854.303 227.848 853.348 223.788 853.409 218.909V152.455Z" fill="white"/>
<defs>
<linearGradient id="paint0_linear_48_75" x1="82.8319" y1="0.434143" x2="1489.99" y2="0.434143" gradientUnits="userSpaceOnUse">
<stop offset="0.114583" stop-color="#F56819"/>
<stop offset="1" stop-color="#FF5C00" stop-opacity="0"/>
</linearGradient>
</defs>
</svg>
