<svg width="42" height="41" viewBox="0 0 42 41" fill="none" xmlns="http://www.w3.org/2000/svg">
<g clip-path="url(#clip0_24_206)">
<path d="M21 3.6916C26.6109 3.6916 27.2754 3.71562 29.482 3.81172C31.5328 3.8998 32.6402 4.23613 33.3785 4.51641C34.3547 4.88477 35.0602 5.3332 35.7902 6.0459C36.5285 6.7666 36.9797 7.44727 37.357 8.4002C37.6441 9.1209 37.9887 10.21 38.0789 12.2039C38.1773 14.366 38.202 15.0146 38.202 20.484C38.202 25.9613 38.1773 26.61 38.0789 28.7641C37.9887 30.766 37.6441 31.8471 37.357 32.5678C36.9797 33.5207 36.5203 34.2094 35.7902 34.9221C35.052 35.6428 34.3547 36.0832 33.3785 36.4516C32.6402 36.7318 31.5246 37.0682 29.482 37.1562C27.2672 37.2523 26.6027 37.2764 21 37.2764C15.3891 37.2764 14.7246 37.2523 12.518 37.1562C10.4672 37.0682 9.35977 36.7318 8.62149 36.4516C7.64531 36.0832 6.93984 35.6348 6.20977 34.9221C5.47148 34.2014 5.02031 33.5207 4.64297 32.5678C4.35586 31.8471 4.01133 30.758 3.92109 28.7641C3.82266 26.602 3.79805 25.9533 3.79805 20.484C3.79805 15.0066 3.82266 14.358 3.92109 12.2039C4.01133 10.202 4.35586 9.1209 4.64297 8.4002C5.02031 7.44727 5.47969 6.75859 6.20977 6.0459C6.94805 5.32519 7.64531 4.88477 8.62149 4.51641C9.35977 4.23613 10.4754 3.8998 12.518 3.81172C14.7246 3.71562 15.3891 3.6916 21 3.6916ZM21 0C15.2988 0 14.5852 0.0240234 12.3457 0.120117C10.1145 0.216211 8.58047 0.568555 7.25156 1.07305C5.86523 1.60156 4.69219 2.29824 3.52734 3.44336C2.3543 4.58047 1.64063 5.72559 1.09922 7.0709C0.582422 8.37617 0.221484 9.86562 0.123047 12.0437C0.0246094 14.2379 0 14.9346 0 20.5C0 26.0654 0.0246094 26.7621 0.123047 28.9482C0.221484 31.1264 0.582422 32.6238 1.09922 33.9211C1.64063 35.2744 2.3543 36.4195 3.52734 37.5566C4.69219 38.6937 5.86524 39.3984 7.24336 39.9189C8.58047 40.4234 10.1063 40.7758 12.3375 40.8719C14.577 40.968 15.2906 40.992 20.9918 40.992C26.693 40.992 27.4066 40.968 29.6461 40.8719C31.8773 40.7758 33.4113 40.4234 34.7402 39.9189C36.1184 39.3984 37.2914 38.6937 38.4563 37.5566C39.6211 36.4195 40.343 35.2744 40.8762 33.9291C41.393 32.6238 41.7539 31.1344 41.8523 28.9562C41.9508 26.7701 41.9754 26.0734 41.9754 20.508C41.9754 14.9426 41.9508 14.2459 41.8523 12.0598C41.7539 9.88164 41.393 8.38418 40.8762 7.08691C40.3594 5.72559 39.6457 4.58047 38.4727 3.44336C37.3078 2.30625 36.1348 1.60156 34.7566 1.08105C33.4195 0.576562 31.8938 0.224219 29.6625 0.128125C27.4148 0.0240234 26.7012 0 21 0Z" fill="#FF5C00"/>
<path d="M21 9.96973C15.0445 9.96973 10.2129 14.6863 10.2129 20.5C10.2129 26.3137 15.0445 31.0303 21 31.0303C26.9555 31.0303 31.7871 26.3137 31.7871 20.5C31.7871 14.6863 26.9555 9.96973 21 9.96973ZM21 27.3307C17.1363 27.3307 14.0027 24.2717 14.0027 20.5C14.0027 16.7283 17.1363 13.6693 21 13.6693C24.8637 13.6693 27.9973 16.7283 27.9973 20.5C27.9973 24.2717 24.8637 27.3307 21 27.3307Z" fill="#FF5C00"/>
<path d="M34.732 9.55325C34.732 10.9146 33.6 12.0117 32.2137 12.0117C30.8191 12.0117 29.6953 10.9066 29.6953 9.55325C29.6953 8.19192 30.8273 7.09485 32.2137 7.09485C33.6 7.09485 34.732 8.19993 34.732 9.55325Z" fill="#FF5C00"/>
</g>
<defs>
<clipPath id="clip0_24_206">
<rect width="42" height="41" fill="white"/>
</clipPath>
</defs>
</svg>
