<svg width="159" height="69" viewBox="0 0 159 69" fill="none" xmlns="http://www.w3.org/2000/svg">
<path d="M49.5 49V25.7273H55.8182V34.8182H64.1818V25.7273H70.5V49H64.1818V39.9091H55.8182V49H49.5ZM78.4545 49.2727C77.3409 49.2727 76.3561 49.0909 75.5 48.7273C74.6515 48.3561 73.9848 47.7955 73.5 47.0455C73.0152 46.2955 72.7727 45.3409 72.7727 44.1818C72.7727 43.2273 72.9356 42.4129 73.2614 41.7386C73.5871 41.0568 74.0417 40.5 74.625 40.0682C75.2083 39.6364 75.8864 39.3068 76.6591 39.0795C77.4394 38.8523 78.2803 38.7045 79.1818 38.6364C80.1591 38.5606 80.9432 38.4697 81.5341 38.3636C82.1326 38.25 82.5644 38.0947 82.8295 37.8977C83.0947 37.6932 83.2273 37.4242 83.2273 37.0909V37.0455C83.2273 36.5909 83.053 36.2424 82.7045 36C82.3561 35.7576 81.9091 35.6364 81.3636 35.6364C80.7652 35.6364 80.2765 35.7689 79.8977 36.0341C79.5265 36.2917 79.303 36.6894 79.2273 37.2273H73.4545C73.5303 36.1667 73.8674 35.1894 74.4659 34.2955C75.072 33.3939 75.9545 32.6742 77.1136 32.1364C78.2727 31.5909 79.7197 31.3182 81.4545 31.3182C82.7045 31.3182 83.8258 31.4659 84.8182 31.7614C85.8106 32.0492 86.6553 32.4545 87.3523 32.9773C88.0492 33.4924 88.5795 34.0985 88.9432 34.7955C89.3144 35.4848 89.5 36.2348 89.5 37.0455V49H83.6364V46.5455H83.5C83.1515 47.197 82.7273 47.7235 82.2273 48.125C81.7348 48.5265 81.1705 48.8182 80.5341 49C79.9053 49.1818 79.2121 49.2727 78.4545 49.2727ZM80.5 45.3182C80.9773 45.3182 81.4242 45.2197 81.8409 45.0227C82.2652 44.8258 82.6098 44.5417 82.875 44.1705C83.1402 43.7992 83.2727 43.3485 83.2727 42.8182V41.3636C83.1061 41.4318 82.928 41.4962 82.7386 41.5568C82.5568 41.6174 82.3598 41.6742 82.1477 41.7273C81.9432 41.7803 81.7235 41.8295 81.4886 41.875C81.2614 41.9205 81.0227 41.9621 80.7727 42C80.2879 42.0758 79.8902 42.2008 79.5795 42.375C79.2765 42.5417 79.0492 42.75 78.8977 43C78.7538 43.2424 78.6818 43.5152 78.6818 43.8182C78.6818 44.303 78.8523 44.6742 79.1932 44.9318C79.5341 45.1894 79.9697 45.3182 80.5 45.3182ZM100.906 49.3182C99.0123 49.3182 97.3911 48.9432 96.0426 48.1932C94.6941 47.4356 93.66 46.3826 92.9403 45.0341C92.2206 43.678 91.8608 42.1061 91.8608 40.3182C91.8608 38.5303 92.2206 36.9621 92.9403 35.6136C93.66 34.2576 94.6941 33.2045 96.0426 32.4545C97.3911 31.697 99.0123 31.3182 100.906 31.3182C102.618 31.3182 104.099 31.6288 105.349 32.25C106.607 32.8636 107.58 33.7348 108.27 34.8636C108.959 35.9848 109.308 37.303 109.315 38.8182H103.497C103.414 37.9015 103.149 37.2045 102.702 36.7273C102.262 36.2424 101.694 36 100.997 36C100.452 36 99.9744 36.1591 99.5653 36.4773C99.1563 36.7879 98.8381 37.2614 98.6108 37.8977C98.3835 38.5265 98.2699 39.3182 98.2699 40.2727C98.2699 41.2273 98.3835 42.0227 98.6108 42.6591C98.8381 43.2879 99.1563 43.7614 99.5653 44.0795C99.9744 44.3902 100.452 44.5455 100.997 44.5455C101.459 44.5455 101.868 44.4394 102.224 44.2273C102.58 44.0076 102.868 43.6894 103.088 43.2727C103.315 42.8485 103.452 42.3333 103.497 41.7273H109.315C109.293 43.2652 108.94 44.6061 108.259 45.75C107.577 46.8864 106.611 47.7652 105.361 48.3864C104.118 49.0076 102.634 49.3182 100.906 49.3182ZM117.54 44.8636L117.585 37.4091H118.403L122.631 31.5455H129.676L122.585 40.6818H120.812L117.54 44.8636ZM111.903 49V25.7273H118.176V49H111.903ZM122.676 49L118.676 42.0909L122.767 37.6364L129.858 49H122.676ZM147.264 37.2273H141.491C141.461 36.8712 141.336 36.5644 141.116 36.3068C140.897 36.0492 140.613 35.8523 140.264 35.7159C139.923 35.572 139.545 35.5 139.128 35.5C138.59 35.5 138.128 35.5985 137.741 35.7955C137.355 35.9924 137.166 36.2727 137.173 36.6364C137.166 36.8939 137.276 37.1326 137.503 37.3523C137.738 37.572 138.188 37.7424 138.855 37.8636L142.401 38.5C144.188 38.8258 145.518 39.375 146.389 40.1477C147.268 40.9129 147.711 41.9394 147.719 43.2273C147.711 44.4697 147.34 45.5492 146.605 46.4659C145.878 47.375 144.882 48.0795 143.616 48.5795C142.359 49.072 140.923 49.3182 139.31 49.3182C136.643 49.3182 134.556 48.7727 133.048 47.6818C131.548 46.5909 130.711 45.1515 130.537 43.3636H136.764C136.848 43.9167 137.12 44.3447 137.582 44.6477C138.052 44.9432 138.643 45.0909 139.355 45.0909C139.931 45.0909 140.404 44.9924 140.776 44.7955C141.154 44.5985 141.348 44.3182 141.355 43.9545C141.348 43.6212 141.181 43.3561 140.855 43.1591C140.537 42.9621 140.037 42.803 139.355 42.6818L136.264 42.1364C134.484 41.8258 133.151 41.2348 132.264 40.3636C131.378 39.4924 130.938 38.3712 130.946 37C130.938 35.7879 131.257 34.7614 131.901 33.9205C132.552 33.072 133.48 32.428 134.685 31.9886C135.897 31.5417 137.332 31.3182 138.991 31.3182C141.514 31.3182 143.503 31.8409 144.957 32.8864C146.42 33.9318 147.188 35.3788 147.264 37.2273Z" fill="#F9620D" fill-opacity="0.92"/>
<path d="M12.7083 30.6393C12.7083 29.5921 12.7083 29.0684 12.9447 28.6264C13.1811 28.1844 13.6166 27.8937 14.4877 27.3123L29.3897 17.3661C29.9278 17.0069 30.1969 16.8273 30.5 16.8273C30.803 16.8273 31.0721 17.0069 31.6103 17.3661L46.5122 27.3123C47.3833 27.8937 47.8189 28.1844 48.0552 28.6264C48.2916 29.0684 48.2916 29.5921 48.2916 30.6393V47.875C48.2916 48.8178 48.2916 49.2892 47.9988 49.5821C47.7059 49.875 47.2345 49.875 46.2916 49.875H14.7083C13.7655 49.875 13.2941 49.875 13.0012 49.5821C12.7083 49.2892 12.7083 48.8178 12.7083 47.875V30.6393Z" fill="#2A4157" fill-opacity="0.24"/>
<path d="M7.625 30.2861C7.625 30.5437 7.625 30.6725 7.70691 30.7142C7.78882 30.7559 7.89301 30.6802 8.10137 30.5288L29.3242 15.1046C29.8914 14.6923 30.175 14.4862 30.5 14.4862C30.825 14.4862 31.1086 14.6923 31.6758 15.1046L52.8986 30.5288C53.107 30.6802 53.2112 30.7559 53.2931 30.7142C53.375 30.6725 53.375 30.5437 53.375 30.2861V27.1439C53.375 26.6442 53.375 26.3944 53.266 26.1805C53.1571 25.9666 52.955 25.8197 52.5508 25.526L31.6758 10.3546C31.1086 9.94232 30.825 9.73621 30.5 9.73621C30.175 9.73621 29.8914 9.94232 29.3242 10.3546L8.44918 25.526C8.04501 25.8197 7.84292 25.9666 7.73396 26.1805C7.625 26.3944 7.625 26.6442 7.625 27.1439V30.2861Z" fill="#FF5C00"/>
<path d="M34.8541 35.625H26.1458C25.0412 35.625 24.1458 36.5204 24.1458 37.625V49.725C24.1458 49.8078 24.213 49.875 24.2958 49.875H36.7041C36.787 49.875 36.8541 49.8078 36.8541 49.725V37.625C36.8541 36.5204 35.9587 35.625 34.8541 35.625Z" fill="#222222"/>
<rect x="40.6667" y="11.875" width="5.08333" height="9.5" rx="0.5" fill="#222222"/>
</svg>
