<svg width="350" height="350" viewBox="0 0 350 350" fill="none" xmlns="http://www.w3.org/2000/svg">
<path d="M211.458 306.25V219.75C211.458 219.198 211.011 218.75 210.458 218.75H139.542C138.989 218.75 138.542 219.198 138.542 219.75V306.25" stroke="#F9620D" stroke-opacity="0.92" stroke-width="10" stroke-linecap="round" stroke-linejoin="round"/>
<path d="M72.9167 160.417V302.25C72.9167 304.136 72.9167 305.078 73.5025 305.664C74.0883 306.25 75.0311 306.25 76.9168 306.25H273.083C274.969 306.25 275.912 306.25 276.498 305.664C277.083 305.078 277.083 304.136 277.083 302.25V160.417" stroke="#F9620D" stroke-opacity="0.92" stroke-width="10"/>
<path d="M72.5379 45.2649C72.7198 44.5374 72.8108 44.1736 73.082 43.9618C73.3533 43.75 73.7283 43.75 74.4782 43.75H275.522C276.272 43.75 276.647 43.75 276.918 43.9618C277.189 44.1736 277.28 44.5374 277.462 45.2649L305.629 157.932C305.915 159.076 306.058 159.647 305.757 160.032C305.457 160.417 304.868 160.417 303.688 160.417H251.305C249.687 160.417 248.878 160.417 248.318 159.943C247.759 159.469 247.626 158.671 247.36 157.074L240.822 117.85C240.747 117.4 240.71 117.175 240.625 117.175C240.54 117.175 240.503 117.4 240.428 117.85L233.89 157.074C233.624 158.671 233.491 159.469 232.932 159.943C232.372 160.417 231.563 160.417 229.945 160.417H185.68C184.062 160.417 183.253 160.417 182.693 159.943C182.134 159.469 182.001 158.671 181.735 157.074L175.197 117.85C175.122 117.4 175.085 117.175 175 117.175C174.915 117.175 174.878 117.4 174.803 117.85L168.265 157.074C167.999 158.671 167.866 159.469 167.307 159.943C166.747 160.417 165.938 160.417 164.32 160.417H120.055C118.437 160.417 117.628 160.417 117.068 159.943C116.509 159.469 116.376 158.671 116.11 157.074L109.572 117.85C109.497 117.4 109.46 117.175 109.375 117.175C109.29 117.175 109.253 117.4 109.178 117.85L102.64 157.074C102.374 158.671 102.241 159.469 101.682 159.943C101.122 160.417 100.313 160.417 98.6948 160.417H46.3116C45.1324 160.417 44.5428 160.417 44.2426 160.032C43.9423 159.647 44.0853 159.076 44.3713 157.932L72.5379 45.2649Z" stroke="#F9620D" stroke-opacity="0.92" stroke-width="10"/>
</svg>
