<svg width="1440" height="334" viewBox="0 0 1440 334" fill="none" xmlns="http://www.w3.org/2000/svg">
<rect width="1440" height="334" fill="url(#paint0_linear_0_1)"/>
<path d="M398 217V123.909H438.182C445.091 123.909 451.136 125.273 456.318 128C461.5 130.727 465.53 134.561 468.409 139.5C471.288 144.439 472.727 150.212 472.727 156.818C472.727 163.485 471.242 169.258 468.273 174.136C465.333 179.015 461.197 182.773 455.864 185.409C450.561 188.045 444.364 189.364 437.273 189.364H413.273V169.727H432.182C435.152 169.727 437.682 169.212 439.773 168.182C441.894 167.121 443.515 165.621 444.636 163.682C445.788 161.742 446.364 159.455 446.364 156.818C446.364 154.152 445.788 151.879 444.636 150C443.515 148.091 441.894 146.636 439.773 145.636C437.682 144.606 435.152 144.091 432.182 144.091H423.273V217H398ZM482.364 217V147.182H506.727V160.455H507.455C508.727 155.545 510.742 151.955 513.5 149.682C516.288 147.409 519.545 146.273 523.273 146.273C524.364 146.273 525.439 146.364 526.5 146.545C527.591 146.697 528.636 146.924 529.636 147.227V168.636C528.394 168.212 526.864 167.894 525.045 167.682C523.227 167.47 521.667 167.364 520.364 167.364C517.909 167.364 515.697 167.924 513.727 169.045C511.788 170.136 510.258 171.682 509.136 173.682C508.015 175.652 507.455 177.97 507.455 180.636V217H482.364ZM567.5 218.273C559.924 218.273 553.439 216.773 548.045 213.773C542.652 210.742 538.515 206.53 535.636 201.136C532.758 195.712 531.318 189.424 531.318 182.273C531.318 175.121 532.758 168.848 535.636 163.455C538.515 158.03 542.652 153.818 548.045 150.818C553.439 147.788 559.924 146.273 567.5 146.273C575.076 146.273 581.561 147.788 586.955 150.818C592.348 153.818 596.485 158.03 599.364 163.455C602.242 168.848 603.682 175.121 603.682 182.273C603.682 189.424 602.242 195.712 599.364 201.136C596.485 206.53 592.348 210.742 586.955 213.773C581.561 216.773 575.076 218.273 567.5 218.273ZM567.682 199.727C569.803 199.727 571.636 199.015 573.182 197.591C574.727 196.167 575.924 194.136 576.773 191.5C577.621 188.864 578.045 185.727 578.045 182.091C578.045 178.424 577.621 175.288 576.773 172.682C575.924 170.045 574.727 168.015 573.182 166.591C571.636 165.167 569.803 164.455 567.682 164.455C565.439 164.455 563.515 165.167 561.909 166.591C560.303 168.015 559.076 170.045 558.227 172.682C557.379 175.288 556.955 178.424 556.955 182.091C556.955 185.727 557.379 188.864 558.227 191.5C559.076 194.136 560.303 196.167 561.909 197.591C563.515 199.015 565.439 199.727 567.682 199.727ZM613.864 243.182V147.182H638.773V159.364H639.318C640.227 157 641.561 154.833 643.318 152.864C645.076 150.864 647.258 149.273 649.864 148.091C652.47 146.879 655.5 146.273 658.955 146.273C663.561 146.273 667.939 147.5 672.091 149.955C676.273 152.409 679.667 156.273 682.273 161.545C684.909 166.818 686.227 173.667 686.227 182.091C686.227 190.152 684.97 196.833 682.455 202.136C679.97 207.439 676.636 211.394 672.455 214C668.303 216.606 663.742 217.909 658.773 217.909C655.5 217.909 652.576 217.379 650 216.318C647.455 215.227 645.273 213.758 643.455 211.909C641.667 210.03 640.288 207.909 639.318 205.545H638.955V243.182H613.864ZM638.409 182.091C638.409 185.485 638.848 188.424 639.727 190.909C640.636 193.364 641.909 195.273 643.545 196.636C645.212 197.97 647.197 198.636 649.5 198.636C651.803 198.636 653.758 197.985 655.364 196.682C657 195.348 658.242 193.455 659.091 191C659.97 188.515 660.409 185.545 660.409 182.091C660.409 178.636 659.97 175.682 659.091 173.227C658.242 170.742 657 168.848 655.364 167.545C653.758 166.212 651.803 165.545 649.5 165.545C647.197 165.545 645.212 166.212 643.545 167.545C641.909 168.848 640.636 170.742 639.727 173.227C638.848 175.682 638.409 178.636 638.409 182.091ZM730.193 218.273C722.739 218.273 716.314 216.848 710.92 214C705.557 211.121 701.42 207 698.511 201.636C695.633 196.242 694.193 189.788 694.193 182.273C694.193 175.061 695.648 168.758 698.557 163.364C701.466 157.97 705.572 153.773 710.875 150.773C716.178 147.773 722.436 146.273 729.648 146.273C734.92 146.273 739.693 147.091 743.966 148.727C748.239 150.364 751.89 152.742 754.92 155.864C757.951 158.955 760.284 162.712 761.92 167.136C763.557 171.561 764.375 176.545 764.375 182.091V187.909H702.011V174.091H741.284C741.254 172.091 740.739 170.333 739.739 168.818C738.769 167.273 737.451 166.076 735.784 165.227C734.148 164.348 732.284 163.909 730.193 163.909C728.163 163.909 726.299 164.348 724.602 165.227C722.905 166.076 721.542 167.258 720.511 168.773C719.511 170.288 718.981 172.061 718.92 174.091V189C718.92 191.242 719.39 193.242 720.33 195C721.269 196.758 722.617 198.136 724.375 199.136C726.133 200.136 728.254 200.636 730.739 200.636C732.466 200.636 734.042 200.394 735.466 199.909C736.92 199.424 738.163 198.727 739.193 197.818C740.223 196.879 740.981 195.758 741.466 194.455H764.375C763.587 199.303 761.723 203.515 758.784 207.091C755.845 210.636 751.951 213.394 747.102 215.364C742.284 217.303 736.648 218.273 730.193 218.273ZM774.614 217V147.182H798.977V160.455H799.705C800.977 155.545 802.992 151.955 805.75 149.682C808.538 147.409 811.795 146.273 815.523 146.273C816.614 146.273 817.689 146.364 818.75 146.545C819.841 146.697 820.886 146.924 821.886 147.227V168.636C820.644 168.212 819.114 167.894 817.295 167.682C815.477 167.47 813.917 167.364 812.614 167.364C810.159 167.364 807.947 167.924 805.977 169.045C804.038 170.136 802.508 171.682 801.386 173.682C800.265 175.652 799.705 177.97 799.705 180.636V217H774.614ZM874.625 147.182V165.364H828.625V147.182H874.625ZM837.534 130.455H862.625V194.545C862.625 195.515 862.792 196.333 863.125 197C863.458 197.636 863.973 198.121 864.67 198.455C865.367 198.758 866.261 198.909 867.352 198.909C868.11 198.909 868.989 198.818 869.989 198.636C871.019 198.455 871.777 198.303 872.261 198.182L875.898 215.818C874.777 216.152 873.17 216.561 871.08 217.045C869.019 217.53 866.564 217.848 863.716 218C857.958 218.303 853.125 217.712 849.216 216.227C845.307 214.712 842.367 212.333 840.398 209.091C838.428 205.848 837.473 201.788 837.534 196.909V130.455ZM884.864 217V147.182H909.955V217H884.864ZM897.409 139.909C894.015 139.909 891.106 138.788 888.682 136.545C886.258 134.303 885.045 131.606 885.045 128.455C885.045 125.303 886.258 122.606 888.682 120.364C891.106 118.121 894.015 117 897.409 117C900.833 117 903.742 118.121 906.136 120.364C908.561 122.606 909.773 125.303 909.773 128.455C909.773 131.606 908.561 134.303 906.136 136.545C903.742 138.788 900.833 139.909 897.409 139.909ZM956.193 218.273C948.739 218.273 942.314 216.848 936.92 214C931.557 211.121 927.42 207 924.511 201.636C921.633 196.242 920.193 189.788 920.193 182.273C920.193 175.061 921.648 168.758 924.557 163.364C927.466 157.97 931.572 153.773 936.875 150.773C942.178 147.773 948.436 146.273 955.648 146.273C960.92 146.273 965.693 147.091 969.966 148.727C974.239 150.364 977.89 152.742 980.92 155.864C983.951 158.955 986.284 162.712 987.92 167.136C989.557 171.561 990.375 176.545 990.375 182.091V187.909H928.011V174.091H967.284C967.254 172.091 966.739 170.333 965.739 168.818C964.769 167.273 963.451 166.076 961.784 165.227C960.148 164.348 958.284 163.909 956.193 163.909C954.163 163.909 952.299 164.348 950.602 165.227C948.905 166.076 947.542 167.258 946.511 168.773C945.511 170.288 944.981 172.061 944.92 174.091V189C944.92 191.242 945.39 193.242 946.33 195C947.269 196.758 948.617 198.136 950.375 199.136C952.133 200.136 954.254 200.636 956.739 200.636C958.466 200.636 960.042 200.394 961.466 199.909C962.92 199.424 964.163 198.727 965.193 197.818C966.223 196.879 966.981 195.758 967.466 194.455H990.375C989.587 199.303 987.723 203.515 984.784 207.091C981.845 210.636 977.951 213.394 973.102 215.364C968.284 217.303 962.648 218.273 956.193 218.273ZM1064.43 169.909H1041.34C1041.22 168.485 1040.72 167.258 1039.84 166.227C1038.96 165.197 1037.83 164.409 1036.43 163.864C1035.07 163.288 1033.55 163 1031.89 163C1029.73 163 1027.89 163.394 1026.34 164.182C1024.8 164.97 1024.04 166.091 1024.07 167.545C1024.04 168.576 1024.48 169.53 1025.39 170.409C1026.33 171.288 1028.13 171.97 1030.8 172.455L1044.98 175C1052.13 176.303 1057.45 178.5 1060.93 181.591C1064.45 184.652 1066.22 188.758 1066.25 193.909C1066.22 198.879 1064.73 203.197 1061.8 206.864C1058.89 210.5 1054.9 213.318 1049.84 215.318C1044.81 217.288 1039.07 218.273 1032.61 218.273C1021.95 218.273 1013.6 216.091 1007.57 211.727C1001.57 207.364 998.22 201.606 997.523 194.455H1022.43C1022.77 196.667 1023.86 198.379 1025.7 199.591C1027.58 200.773 1029.95 201.364 1032.8 201.364C1035.1 201.364 1036.99 200.97 1038.48 200.182C1039.99 199.394 1040.77 198.273 1040.8 196.818C1040.77 195.485 1040.1 194.424 1038.8 193.636C1037.52 192.848 1035.52 192.212 1032.8 191.727L1020.43 189.545C1013.31 188.303 1007.98 185.939 1004.43 182.455C1000.89 178.97 999.129 174.485 999.159 169C999.129 164.152 1000.4 160.045 1002.98 156.682C1005.58 153.288 1009.3 150.712 1014.11 148.955C1018.96 147.167 1024.7 146.273 1031.34 146.273C1041.43 146.273 1049.39 148.364 1055.2 152.545C1061.05 156.727 1064.13 162.515 1064.43 169.909Z" fill="white"/>
<defs>
<linearGradient id="paint0_linear_0_1" x1="82.8319" y1="0" x2="1489.99" y2="0" gradientUnits="userSpaceOnUse">
<stop offset="0.114583" stop-color="#F56819"/>
<stop offset="1" stop-color="#FF5C00" stop-opacity="0"/>
</linearGradient>
</defs>
</svg>
