<svg width="300" height="300" viewBox="0 0 300 300" fill="none" xmlns="http://www.w3.org/2000/svg">
<circle cx="150" cy="100" r="45" stroke="#FF5C00" stroke-width="10" stroke-linecap="round"/>
<path d="M184.354 96.25C188.664 88.7853 195.763 83.3383 204.088 81.1074C212.414 78.8765 221.285 80.0444 228.75 84.3542C236.215 88.6639 241.662 95.7625 243.893 104.088C246.123 112.414 244.956 121.285 240.646 128.75C236.336 136.215 229.237 141.662 220.912 143.893C212.586 146.123 203.715 144.956 196.25 140.646C188.785 136.336 183.338 129.237 181.107 120.912C178.877 112.586 180.044 103.715 184.354 96.25L184.354 96.25Z" stroke="#FF5C00" stroke-width="10"/>
<path d="M59.3542 96.25C63.6639 88.7853 70.7625 83.3383 79.0884 81.1074C87.4142 78.8765 96.2853 80.0444 103.75 84.3542C111.215 88.6639 116.662 95.7625 118.893 104.088C121.123 112.414 119.956 121.285 115.646 128.75C111.336 136.215 104.237 141.662 95.9116 143.893C87.5858 146.123 78.7147 144.956 71.25 140.646C63.7853 136.336 58.3383 129.237 56.1074 120.912C53.8765 112.586 55.0444 103.715 59.3542 96.25L59.3542 96.25Z" stroke="#FF5C00" stroke-width="10"/>
<path d="M211.02 225L206.119 225.987L206.927 230H211.02V225ZM262.332 223.898L267.263 223.072L267.263 223.072L262.332 223.898ZM184.76 183.882L181.736 179.9L175.953 184.292L182.12 188.127L184.76 183.882ZM261.367 220H211.02V230H261.367V220ZM257.401 224.723C256.951 222.04 259.113 220 261.367 220V230C264.824 230 267.911 226.942 267.263 223.072L257.401 224.723ZM212.5 180C230.327 180 241.063 189.137 247.714 199.412C254.489 209.877 256.831 221.318 257.401 224.723L267.263 223.072C266.604 219.135 263.972 206.126 256.109 193.978C248.123 181.64 234.558 170 212.5 170V180ZM187.785 187.863C193.874 183.238 201.86 180 212.5 180V170C199.641 170 189.537 173.974 181.736 179.9L187.785 187.863ZM182.12 188.127C197.694 197.814 203.777 214.36 206.119 225.987L215.922 224.013C213.361 211.3 206.422 191.466 187.401 179.636L182.12 188.127Z" fill="#FF5C00"/>
<path d="M115.24 183.881L117.88 188.127L124.047 184.292L118.264 179.9L115.24 183.881ZM37.668 223.898L42.5994 224.723L37.668 223.898ZM88.9795 225V230H93.0729L93.8811 225.987L88.9795 225ZM87.5002 180C98.14 180 106.126 183.238 112.216 187.863L118.264 179.9C110.463 173.974 100.359 170 87.5002 170V180ZM42.5994 224.723C43.1695 221.318 45.5115 209.878 52.2859 199.412C58.9371 189.137 69.6733 180 87.5002 180V170C65.4428 170 51.8776 181.64 43.8911 193.978C36.0278 206.126 33.3959 219.134 32.7366 223.072L42.5994 224.723ZM38.6328 220C40.8872 220 43.0486 222.04 42.5994 224.723L32.7366 223.072C32.0888 226.942 35.1754 230 38.6328 230V220ZM88.9795 220H38.6328V230H88.9795V220ZM93.8811 225.987C96.2228 214.36 102.306 197.814 117.88 188.127L112.599 179.636C93.5781 191.465 86.6384 211.3 84.0779 224.013L93.8811 225.987Z" fill="#FF5C00"/>
<path d="M150 175C207.904 175 212.162 228.646 212.475 236.536C212.497 237.088 212.052 237.5 211.5 237.5H88.5C87.9477 237.5 87.5029 237.088 87.5248 236.536C87.8379 228.646 92.0958 175 150 175Z" stroke="#FF5C00" stroke-width="10" stroke-linecap="round"/>
</svg>
