<svg width="41" height="41" viewBox="0 0 41 41" fill="none" xmlns="http://www.w3.org/2000/svg">
<g clip-path="url(#clip0_24_204)">
<path d="M12.8982 37.1563C28.3661 37.1563 36.8287 24.3382 36.8287 13.2258C36.8287 12.8654 36.8207 12.4971 36.8047 12.1367C38.451 10.9462 39.8716 9.47153 41 7.78206C39.4668 8.4642 37.839 8.9097 36.1721 9.10335C37.9272 8.05131 39.2413 6.39861 39.8709 4.45161C38.2198 5.43013 36.4141 6.12039 34.5313 6.4928C33.2627 5.14484 31.5854 4.25233 29.7586 3.95326C27.9319 3.65419 26.0575 3.96522 24.4253 4.83826C22.7931 5.71129 21.4939 7.09771 20.7287 8.78317C19.9634 10.4686 19.7747 12.3592 20.1917 14.1627C16.8484 13.9949 13.5777 13.1264 10.5916 11.6135C7.60555 10.1006 4.97073 7.97705 2.85799 5.38052C1.78418 7.23188 1.4556 9.42265 1.93901 11.5076C2.42243 13.5925 3.68157 15.4151 5.46053 16.6051C4.12499 16.5627 2.81871 16.2031 1.64961 15.556V15.6601C1.64841 17.603 2.32008 19.4863 3.55045 20.99C4.78081 22.4936 6.49393 23.5248 8.39859 23.9082C7.16143 24.2467 5.86297 24.296 4.60369 24.0523C5.14115 25.7232 6.18685 27.1846 7.59486 28.2326C9.00286 29.2805 10.7029 29.8628 12.4578 29.898C9.47856 32.2382 5.79838 33.5076 2.00996 33.5016C1.33812 33.5005 0.666932 33.4593 0 33.3782C3.84863 35.8473 8.32562 37.1587 12.8982 37.1563Z" fill="#FF5C00"/>
</g>
<defs>
<clipPath id="clip0_24_204">
<rect width="41" height="41" fill="white"/>
</clipPath>
</defs>
</svg>
